<?xml version="1.0" encoding="UTF-8"?>
<svg id="Layer_1" data-name="Layer 1" xmlns="http://www.w3.org/2000/svg" viewBox="0 0 777.08 1235.79">
  <defs>
    <style>
      .cls-1 {
        fill: #cdecf9;
      }

      .cls-2 {
        fill: #bb2926;
      }

      .cls-3 {
        fill: #f68f78;
      }

      .cls-4 {
        fill: #fff;
        opacity: .2;
      }

      .cls-5 {
        fill: #0b4978;
      }

      .cls-6 {
        fill: #ed6938;
      }

      .cls-7 {
        fill: #e44f26;
      }
    </style>
  </defs>
  <path class="cls-2" d="m697.32,354.6H88.2c-15.8,0-30.12,6.41-40.47,16.77-10.36,10.35-16.77,24.67-16.77,40.47,0,31.61,25.63,57.24,57.24,57.24h55.97c6.56,46.46,46.5,82.21,94.77,82.21h302.14c26.43,0,50.36-10.71,67.68-28.04,14.31-14.31,24.12-33.14,27.09-54.17h61.47c15.8,0,30.12-6.41,40.47-16.77,10.36-10.35,16.77-24.67,16.77-40.47,0-31.61-25.63-57.24-57.24-57.24Zm15.34,74.8c-4.49,4.5-10.7,7.28-17.56,7.28H90.42c-13.71,0-24.84-11.12-24.84-24.84,0-6.86,2.78-13.07,7.28-17.56,4.5-4.5,10.7-7.28,17.56-7.28h604.68c13.72,0,24.84,11.12,24.84,24.84,0,6.86-2.78,13.07-7.28,17.56Z"/>
  <g>
    <rect class="cls-5" x="99.34" width="586.85" height="411.84" rx="40" ry="40"/>
    <rect class="cls-1" x="236.95" width="311.64" height="411.84"/>
  </g>
  <g>
    <path class="cls-2" d="m777.08,851.57c0,212.2-172.02,384.22-384.22,384.22S8.64,1063.77,8.64,851.57s172.02-384.22,384.23-384.22,384.22,172.02,384.22,384.22Z"/>
    <path class="cls-6" d="m768.44,834.3c0,212.2-172.02,384.22-384.22,384.22S0,1046.5,0,834.3s172.03-384.22,384.22-384.22,384.22,172.02,384.22,384.22Z"/>
    <circle class="cls-7" cx="384.22" cy="834.3" r="291.4"/>
    <path class="cls-4" d="m690.73,849.41c0,160.94-130.47,291.4-291.4,291.4-84.31,0-160.25-35.81-213.46-93.06,52.02,48.37,121.72,77.95,198.35,77.95,160.94,0,291.4-130.46,291.4-291.4,0-76.63-29.57-146.35-77.95-198.35,57.25,53.19,93.06,129.14,93.06,213.46Z"/>
    <path class="cls-2" d="m118.72,851.57c0-160.94,130.47-291.4,291.4-291.4,54.21,0,104.94,14.82,148.41,40.6-48.62-36.35-108.96-57.87-174.32-57.87-160.94,0-291.4,130.47-291.4,291.4,0,106.73,57.39,200.05,142.99,250.81-71.08-53.14-117.09-137.97-117.09-233.54Z"/>
    <path class="cls-4" d="m113.53,942.4l-69.96,69.8c-16.47-31.47-28.71-65.49-35.94-101.34l85.3-85.13c-.08,2.85-.12,5.7-.12,8.57,0,38.21,7.34,74.68,20.72,108.1Z"/>
    <path class="cls-4" d="m562.82,494.01l-69.96,69.83c-33.56-13.51-70.24-20.94-108.64-20.94-2.68,0-5.33.04-7.99.11l85.31-85.13c35.83,7.3,69.85,19.6,101.28,36.14Z"/>
    <path class="cls-4" d="m422.75,1123.18l-91.85,91.67c-14.36-1.99-28.45-4.77-42.25-8.31l81.36-81.18c4.71.24,9.43.35,14.21.35,13.06,0,25.92-.87,38.53-2.53Z"/>
    <path class="cls-4" d="m764.85,781.74v.02l-91.85,91.65c1.72-12.78,2.62-25.84,2.62-39.11,0-4.55-.11-9.09-.33-13.6l81.36-81.21c3.49,13.79,6.25,27.89,8.2,42.24Z"/>
    <path class="cls-2" d="m361.29,822.95h34.29c19.53,0,32.79-4.05,39.77-12.14,6.99-8.1,10.48-16.75,10.48-25.95,0-10.32-3.85-19.49-11.55-27.5-7.7-8.02-18.45-12.03-32.26-12.03-26.36,0-42.95,13.89-49.77,41.67l-67.4-10.72c5.56-25.08,19.01-45.84,40.37-62.27,21.35-16.43,47.66-24.65,78.93-24.65s60.21,7.79,82.52,23.36c22.3,15.57,33.46,36.86,33.46,63.86,0,35.43-18.57,59.65-55.73,72.68,43.66,11.58,65.49,37.28,65.49,77.1,0,28.56-11.16,52.03-33.46,70.43-22.31,18.41-53.07,27.61-92.28,27.61s-67.43-9.46-89.42-28.39c-21.99-18.92-35.21-42.4-39.65-70.44l69.06-10c6.67,33.5,26.03,50.25,58.11,50.25,14.92,0,27.03-3.95,36.31-11.87,9.29-7.91,13.94-18.52,13.94-31.82,0-14.09-4.25-24.62-12.74-31.58-8.49-6.97-24.72-10.45-48.7-10.45h-29.76v-57.15Z"/>
    <g>
      <path class="cls-3" d="m311.27,700.06c-2,1.54-3.94,3.12-5.8,4.74,1.86-1.61,3.8-3.19,5.8-4.73,1.18-.91,2.38-1.79,3.59-2.65-1.21.85-2.41,1.73-3.59,2.64Zm17.12-10.87c1.34-.69,2.7-1.35,4.07-1.99-1.37.63-2.73,1.3-4.07,1.99Zm25.3-9.49c3.97-.99,8.05-1.81,12.22-2.47-4.17.64-8.25,1.46-12.22,2.47Zm12.22-2.47c1.61-.25,3.23-.47,4.86-.67-1.64.19-3.26.41-4.86.67Zm140.16,89.79c.07-1.44.1-2.9.1-4.38,0,1.5-.04,2.95-.1,4.38Zm-13.38,89.28c1.1.97,2.15,1.96,3.17,2.98-1.01-1.03-2.07-2.02-3.17-2.98Zm-3.01-2.52c1.03.82,2.04,1.66,3.01,2.52-.97-.87-1.97-1.71-3.01-2.52Zm-56.73,76.45c.66-1.08,1.25-2.2,1.77-3.35-.54,1.15-1.13,2.27-1.77,3.35Zm-8.34,9.78c-1.3,1.12-2.66,2.15-4.08,3.11,1.42-.94,2.78-1.98,4.08-3.09,3.42-2.9,6.2-6.17,8.34-9.8-2.16,3.63-4.94,6.89-8.34,9.78Zm1.18-63.42c-.25-.2-.51-.4-.77-.59.27.2.53.4.78.61.79.65,1.55,1.33,2.27,2.04-.72-.72-1.48-1.41-2.28-2.06Zm-15.83,71.85c2.2-.78,4.3-1.7,6.3-2.76-2.01,1.05-4.11,1.97-6.3,2.76Zm-48.92,59.88c1.57.25,3.16.48,4.77.67-1.6-.2-3.2-.43-4.77-.67Zm-20.18-4.58c1.41.44,2.85.86,4.3,1.24-1.45-.4-2.88-.81-4.3-1.24Zm-8.29-2.86c2.01.79,4.07,1.52,6.17,2.19-2.1-.68-4.15-1.42-6.17-2.19Zm-7.88-3.37c1.28.62,2.58,1.2,3.89,1.75-1.32-.56-2.61-1.14-3.89-1.75Z"/>
      <path class="cls-3" d="m515.94,912.42c0,28.56-11.16,52.04-33.46,70.44-22.31,18.4-53.07,27.6-92.28,27.6-4.98,0-9.81-.18-14.52-.52h-.01c-.23-.01-.46-.02-.69-.04-.8-.06-1.61-.13-2.41-.2-.63-.05-1.26-.11-1.88-.17-.8-.07-1.6-.16-2.39-.24-.83-.1-1.66-.2-2.49-.3-1.6-.2-3.2-.43-4.77-.67-1-.16-1.99-.32-2.97-.49-1.34-.24-2.67-.49-3.99-.75-2.28-.47-4.53-.98-6.73-1.53-.73-.19-1.46-.38-2.19-.57-1.45-.4-2.88-.81-4.3-1.24-.71-.22-1.41-.44-2.12-.67-2.1-.68-4.15-1.42-6.17-2.19-1.35-.52-2.68-1.06-3.99-1.62-1.32-.56-2.61-1.14-3.89-1.75-.64-.3-1.28-.61-1.91-.92-5.04-2.5-9.81-5.34-14.3-8.51-2.66-1.88-5.23-3.88-7.69-6-21.99-18.93-35.21-42.41-39.65-70.44l69.06-10c3.81,19.11,11.74,32.77,23.82,40.97.57.39,1.14.76,1.73,1.12.45.29.91.55,1.38.82.06.03.11.06.17.09.12.08.24.15.37.21.06.04.12.07.19.1.49.29,1,.55,1.51.8.59.31,1.2.6,1.82.88.09.04.18.08.26.11.55.25,1.09.48,1.65.71.04.01.07.03.11.04.66.27,1.32.52,2,.76.08.03.15.06.23.08.6.22,1.22.42,1.84.61.59.19,1.19.37,1.8.53.25.07.5.14.75.2.57.15,1.15.29,1.73.43.66.15,1.33.3,2,.43.21.04.42.08.64.12.53.1,1.07.19,1.61.28.33.06.67.11,1.01.15.06.02.13.03.19.03.38.06.76.11,1.15.16.15.02.31.04.46.05.7.09,1.42.17,2.14.23.62.06,1.24.1,1.88.14.31.03.62.05.94.06.1.01.2.01.3.02.61.03,1.23.06,1.86.07.84.03,1.7.04,2.56.04s1.62-.01,2.42-.04c.12,0,.23,0,.35-.01.61-.02,1.22-.05,1.83-.08.93-.05,1.86-.12,2.77-.22.68-.06,1.36-.13,2.02-.22.59-.07,1.17-.15,1.74-.24.27-.04.54-.08.8-.13.42-.07.84-.14,1.26-.22.33-.06.66-.13.99-.2.67-.13,1.33-.28,1.97-.44.62-.14,1.22-.3,1.82-.47.44-.12.87-.24,1.3-.38.43-.12.86-.26,1.28-.41.37-.12.74-.25,1.11-.38,2.2-.78,4.3-1.7,6.3-2.76.33-.17.66-.35.99-.54.75-.41,1.49-.85,2.21-1.32.36-.22.72-.45,1.07-.7,1.42-.94,2.78-1.98,4.08-3.09,3.42-2.9,6.2-6.17,8.34-9.8.66-1.08,1.25-2.2,1.77-3.35.27-.57.53-1.16.76-1.75.24-.59.47-1.19.67-1.8.07-.15.12-.31.16-.47.09-.23.16-.46.23-.7.24-.75.46-1.52.65-2.3.21-.82.39-1.66.54-2.51.07-.32.13-.65.17-.97.06-.32.11-.66.16-.99v-.03c.06-.38.11-.76.15-1.14.06-.54.12-1.08.16-1.63.04-.42.07-.85.09-1.27.03-.48.05-.97.07-1.46v-.15c0-.5.02-1.01.02-1.52,0-.55-.01-1.09-.02-1.62-.01-.62-.04-1.24-.07-1.84-.02-.35-.04-.69-.06-1.03-.08-1.05-.17-2.06-.3-3.06-.04-.29-.07-.58-.12-.87-.04-.35-.1-.69-.16-1.03,0,0,0-.02,0-.03-.08-.49-.16-.98-.26-1.45,0-.04,0-.08-.02-.11-.09-.45-.18-.88-.28-1.32-.07-.32-.15-.65-.24-.97-.05-.23-.11-.46-.17-.69-.1-.37-.21-.74-.32-1.1-.13-.45-.27-.89-.42-1.33-.3-.9-.64-1.77-1-2.62-.12-.28-.24-.56-.37-.83-.23-.51-.47-1.01-.73-1.51-.2-.39-.41-.78-.63-1.16-.21-.38-.42-.75-.66-1.11-.32-.54-.67-1.06-1.03-1.57-.57-.83-1.19-1.62-1.84-2.38-.16-.19-.32-.37-.49-.55-.41-.47-.84-.92-1.29-1.36-.72-.72-1.48-1.41-2.28-2.06-.25-.2-.51-.4-.77-.59-.4-.3-.8-.59-1.23-.87-.21-.14-.42-.28-.64-.42s-.45-.28-.68-.42c-4.48-2.67-10.43-4.69-17.84-6.04-1.9-.35-3.9-.65-6-.91-1.02-.13-2.06-.25-3.12-.35-.1,0-.19-.02-.29-.03-1.59-.16-3.23-.29-4.92-.39-.58-.05-1.17-.08-1.77-.11-1.36-.07-2.75-.13-4.17-.18-.58-.02-1.17-.04-1.76-.05l-1.35-.03c-1.35-.03-2.73-.04-4.14-.04h-29.77v-57.15h34.29c5.28,0,10.1-.3,14.46-.89,1.48-.2,2.9-.43,4.27-.71,1.37-.26,2.68-.56,3.94-.9.58-.15,1.14-.31,1.69-.47.09-.03.18-.06.27-.08.53-.17,1.04-.33,1.55-.51,1.28-.43,2.49-.91,3.63-1.43.46-.2.91-.42,1.35-.64.42-.21.83-.43,1.23-.65.14-.08.28-.15.42-.24.39-.22.76-.44,1.13-.68.51-.32,1.01-.65,1.49-1,.35-.25.68-.5,1-.76.07-.04.13-.09.19-.15.33-.26.65-.53.96-.82.11-.08.21-.18.32-.3.26-.22.52-.47.77-.73.06-.06.13-.12.18-.19.24-.23.46-.47.67-.72.09-.09.17-.18.25-.27,1.13-1.31,2.16-2.63,3.11-3.97.15-.21.3-.43.45-.65.18-.26.35-.52.52-.78.16-.24.31-.47.46-.71.27-.43.53-.86.77-1.29.23-.38.44-.76.65-1.15.07-.13.15-.27.22-.42.21-.39.41-.78.6-1.18.03-.05.05-.11.08-.17.24-.48.45-.96.66-1.44.01-.03.02-.05.03-.08.23-.51.43-1.02.62-1.53,0-.01,0-.01,0-.01.37-1,.7-2,.98-3.01.03-.09.05-.18.08-.28.11-.4.21-.81.31-1.22.03-.14.07-.29.1-.44.1-.43.18-.86.26-1.3.08-.4.15-.8.2-1.21.01-.02.01-.04.01-.06.04-.26.08-.52.1-.79.05-.31.08-.61.11-.93.02-.21.04-.43.05-.65.02-.09.02-.19.02-.3.05-.79.08-1.59.08-2.39,0-10.32-3.85-19.49-11.55-27.5-7.71-8.02-18.45-12.03-32.27-12.03-26.36,0-42.95,13.89-49.76,41.67l-47.47-7.55-19.93-3.17c.39-1.78.83-3.54,1.31-5.28.14-.54.29-1.08.45-1.62h0c.15-.55.32-1.08.48-1.61.36-1.18.74-2.34,1.14-3.5.44-1.27.9-2.53,1.38-3.78.49-1.25.99-2.48,1.53-3.7,6.25-14.43,15.68-27.1,28.28-38.04,1.86-1.61,3.8-3.19,5.8-4.73,1.18-.91,2.38-1.79,3.59-2.65.03-.02.06-.04.08-.06.51-.36,1.02-.72,1.54-1.07.12-.08.24-.16.37-.25.59-.4,1.19-.8,1.8-1.19.61-.4,1.23-.79,1.85-1.18.03-.01.05-.03.08-.05.63-.39,1.26-.77,1.9-1.15.64-.39,1.29-.76,1.95-1.13,1.24-.71,2.51-1.39,3.78-2.06.06-.03.12-.06.18-.09,1.34-.69,2.7-1.35,4.07-1.99.68-.32,1.37-.63,2.06-.93.69-.31,1.39-.61,2.09-.9.56-.24,1.13-.47,1.69-.69.26-.1.51-.2.76-.3.51-.2,1.02-.4,1.53-.59.18-.06.36-.13.53-.19.63-.24,1.26-.47,1.9-.69.72-.25,1.45-.5,2.18-.74.74-.24,1.47-.48,2.21-.71,1.48-.45,2.98-.88,4.49-1.29.03,0,.06-.01.1-.03.56-.15,1.13-.29,1.69-.44,3.97-.99,8.05-1.81,12.22-2.47,1.61-.25,3.23-.47,4.86-.67,6.25-.76,12.73-1.14,19.43-1.14,32.7,0,60.21,7.79,82.52,23.35,6.76,4.72,12.5,9.96,17.2,15.74.31.38.61.75.91,1.13.85,1.09,1.67,2.19,2.45,3.32.25.35.49.7.73,1.06.2.3.4.61.6.92.29.44.57.88.84,1.33.18.29.35.58.52.87.16.27.32.54.48.81.16.28.32.56.48.85.13.22.25.45.37.68.32.57.62,1.15.91,1.73.27.51.52,1.04.77,1.56.21.43.41.86.6,1.29.09.19.17.37.25.55.25.57.5,1.15.73,1.73.2.49.4.99.58,1.48.15.38.29.76.43,1.13.19.52.37,1.03.54,1.55.12.35.24.71.34,1.06.19.56.36,1.12.52,1.68.18.61.36,1.22.52,1.84.01.05.02.09.03.13.18.66.34,1.32.5,1.99.2.86.39,1.74.57,2.61.14.74.28,1.49.4,2.24.13.76.25,1.52.35,2.3.11.72.2,1.44.28,2.17.05.41.09.82.12,1.24.03.17.04.34.05.51.04.39.08.78.11,1.18.05.65.09,1.31.13,1.97,0,.07,0,.15,0,.22.04.68.06,1.36.08,2.05.02.36.03.73.03,1.1.01.61.02,1.22.02,1.84h0c0,1.51-.04,2.96-.1,4.39-1.48,33.05-20.02,55.81-55.62,68.3,2.94.78,5.79,1.63,8.53,2.54,2.3.76,4.52,1.56,6.68,2.4.53.21,1.05.42,1.57.64.11.04.23.09.34.14.59.25,1.17.49,1.75.74l1.68.75s.04.01.05.02c.48.22.96.44,1.44.67.47.22.93.44,1.38.66.66.33,1.3.65,1.94.99.64.33,1.27.67,1.9,1.01,1.87,1.02,3.67,2.09,5.4,3.21,1.16.74,2.28,1.5,3.38,2.28,1.09.79,2.16,1.59,3.19,2.41s2.04,1.66,3.01,2.52c1.1.97,2.15,1.96,3.17,2.98.34.34.67.69,1,1.03.68.72,1.34,1.45,1.99,2.18.32.37.63.74.95,1.12.29.35.59.71.88,1.07.38.48.76.96,1.13,1.45.13.16.24.32.36.49,9.17,12.31,13.77,27.57,13.77,45.8Z"/>
    </g>
    <path class="cls-4" d="m290.83,765.5l-.03.03-19.91-3.18s0-.01.01-.02l19.93,3.17Z"/>
    <path class="cls-4" d="m381.25,866.2c-1.35-.02-2.73-.03-4.14-.03h-29.78v-9.38h.01s0,9.37,0,9.37h29.77c1.41,0,2.79.01,4.14.04Z"/>
    <path class="cls-4" d="m395.22,866.96c-1.59-.15-3.23-.28-4.92-.39,1.69.1,3.33.23,4.92.39Z"/>
    <path class="cls-4" d="m400.36,807.41c-1.37.28-2.79.51-4.27.71l.02-.02c1.47-.2,2.89-.43,4.25-.69Z"/>
    <path class="cls-4" d="m404.3,806.51c-1.26.34-2.57.64-3.94.9,1.37-.27,2.68-.57,3.94-.9Z"/>
    <path class="cls-4" d="m404.63,868.25h-.01c-1.9-.34-3.9-.64-5.99-.91,2.1.26,4.1.56,6,.91Z"/>
    <path class="cls-2" d="m396.12,808.1l35.74-35.68c-.39,8.65-3.88,16.81-10.46,24.44-5.09,5.9-13.53,9.66-25.28,11.23Z"/>
    <path class="cls-4" d="m465.66,840.26c-2.16-.84-4.38-1.64-6.68-2.4h.01s.03-.01.03-.01c2.28.76,4.5,1.56,6.64,2.41Z"/>
    <path class="cls-4" d="m726.11,660.21l-69.77,69.65c-9.36-19.59-17.24-41.69-30.56-58.56-3.51-4.45-7.12-10.8-10.88-15.03-6.12-6.9-10.21-13.76-16.96-20.04-.58-.64-1.17-1.27-1.78-1.9-.02-.02-.05-.05-.07-.08-4.16-4.42-8.47-8.7-12.91-12.84l65.72-65.6c12.26,10.59,20.01,20.89,30.84,32.95,3.79,4.2,7.38,9.45,10.98,13.82,13.53,16.44,24.7,39.05,35.38,57.62Z"/>
    <path class="cls-4" d="m276.23,1105.04l-67.25,71.28c-1.21-.62-2.41-1.24-3.61-1.87-.06-.03-.12-.06-.18-.1-1.37-.73-2.74-1.46-4.1-2.2s-2.72-1.48-4.07-2.24c-1.35-.75-2.7-1.52-4.04-2.29-.96-.55-1.92-1.11-2.88-1.68-.67-.38-1.34-.78-2.01-1.18-1.04-.61-2.06-1.23-3.09-1.86-.9-.55-1.8-1.1-2.7-1.66-1.09-.67-2.17-1.35-3.25-2.02,0,0,0-.01,0-.01-3.24-2.06-6.45-4.16-9.63-6.3-1.28-.87-2.55-1.74-3.82-2.61-1.26-.88-2.53-1.77-3.78-2.66-1.26-.89-2.51-1.79-3.75-2.7-1.3-.95-2.6-1.91-3.89-2.88-4.54-3.4-9.01-6.9-13.4-10.51-.11-.08-.23-.18-.34-.27-.11-.09-.22-.18-.33-.27-1.28-1.05-2.55-2.11-3.81-3.18-.56-.47-1.12-.95-1.68-1.43-.84-.71-1.68-1.43-2.51-2.17-.61-.52-1.21-1.05-1.81-1.59-.63-.54-1.25-1.09-1.87-1.66-.76-.67-1.52-1.35-2.28-2.04-1.24-1.12-2.47-2.26-3.7-3.4-1.48-1.38-2.95-2.77-4.41-4.18-1.46-1.4-2.9-2.81-4.34-4.24-1.43-1.43-2.86-2.86-4.27-4.31-.06-.06-.11-.11-.17-.17-1.12-1.15-2.23-2.3-3.33-3.47-.24-.24-.48-.49-.71-.74l65.71-65.58c.69.74,1.39,1.48,2.09,2.22.89.94,1.8,1.87,2.71,2.8.41.42.81.84,1.23,1.24.12.14.25.27.41.41.26.28.54.56.82.84.82.83,1.65,1.65,2.49,2.46.74.72,1.48,1.44,2.23,2.15,1,.96,2.01,1.91,3.03,2.86,6.21,6.68,11.47,9.55,18.29,15.62,4.21,3.76,11.59,8.23,16.02,11.74.71.57,1.42,1.13,2.14,1.68,16.26,12.65,35.1,19.16,53.85,28.17Z"/>
  </g>
</svg>