<?xml version="1.0" encoding="UTF-8"?>
<svg id="Layer_1" data-name="Layer 1" xmlns="http://www.w3.org/2000/svg" viewBox="0 0 777.08 1235.79">
  <defs>
    <style>
      .cls-1 {
        fill: #cdecf9;
      }

      .cls-2 {
        fill: #e37e25;
      }

      .cls-3 {
        fill: #eea920;
      }

      .cls-4, .cls-5 {
        fill: #fae100;
      }

      .cls-6 {
        fill: #e78125;
      }

      .cls-5 {
        opacity: .7;
      }

      .cls-7 {
        fill: #f5c216;
      }

      .cls-8 {
        fill: #0b4978;
      }

      .cls-9 {
        fill: #ed9522;
      }
    </style>
  </defs>
  <path class="cls-2" d="m693.1,354.6H83.98c-15.8,0-30.12,6.41-40.47,16.77-10.36,10.35-16.77,24.67-16.77,40.47,0,31.61,25.63,57.24,57.24,57.24h55.97c6.56,46.46,46.5,82.21,94.77,82.21h302.14c26.43,0,50.36-10.71,67.68-28.04,14.31-14.31,24.12-33.14,27.09-54.17h61.47c15.8,0,30.12-6.41,40.47-16.77,10.36-10.35,16.77-24.67,16.77-40.47,0-31.61-25.63-57.24-57.24-57.24Zm15.34,74.8c-4.49,4.5-10.7,7.28-17.56,7.28H86.2c-13.71,0-24.84-11.12-24.84-24.84,0-6.86,2.78-13.07,7.28-17.56,4.5-4.5,10.7-7.28,17.56-7.28h604.68c13.72,0,24.84,11.12,24.84,24.84,0,6.86-2.78,13.07-7.28,17.56Z"/>
  <g>
    <rect class="cls-8" x="95.12" width="586.85" height="411.84" rx="40" ry="40"/>
    <rect class="cls-1" x="232.72" width="311.64" height="411.84"/>
  </g>
  <g>
    <path class="cls-9" d="m777.08,851.57c0,212.2-172.02,384.22-384.22,384.22S8.64,1063.77,8.64,851.57s172.02-384.22,384.23-384.22,384.22,172.02,384.22,384.22Z"/>
    <path class="cls-7" d="m768.44,834.3c0,212.2-172.02,384.22-384.22,384.22S0,1046.5,0,834.3s172.03-384.22,384.23-384.22,384.22,172.02,384.22,384.22Z"/>
    <circle class="cls-3" cx="384.23" cy="834.3" r="291.4"/>
    <path class="cls-5" d="m690.73,849.41c0,160.94-130.47,291.4-291.4,291.4-84.31,0-160.25-35.81-213.46-93.06,52.02,48.37,121.72,77.95,198.35,77.95,160.94,0,291.4-130.46,291.4-291.4,0-76.63-29.57-146.35-77.95-198.35,57.25,53.19,93.06,129.14,93.06,213.46Z"/>
    <path class="cls-2" d="m118.72,851.57c0-160.94,130.47-291.4,291.4-291.4,54.21,0,104.94,14.82,148.41,40.6-48.62-36.35-108.96-57.87-174.32-57.87-160.94,0-291.4,130.47-291.4,291.4,0,106.73,57.39,200.05,142.99,250.81-71.08-53.14-117.09-137.97-117.09-233.54Z"/>
    <path class="cls-5" d="m113.53,942.4l-69.96,69.8c-16.47-31.47-28.71-65.49-35.94-101.34l85.3-85.13c-.08,2.85-.12,5.7-.12,8.57,0,38.21,7.34,74.68,20.72,108.1Z"/>
    <path class="cls-5" d="m562.82,494.01l-69.96,69.83c-33.56-13.51-70.24-20.94-108.64-20.94-2.68,0-5.33.04-7.99.11l85.31-85.13c35.83,7.3,69.85,19.6,101.28,36.14Z"/>
    <path class="cls-5" d="m206.91,1065.55l-66.16,66.01c-12.56-10.3-24.43-21.37-35.55-33.14l65.71-65.58c11.07,11.87,23.12,22.84,36,32.7Z"/>
    <path class="cls-5" d="m681.96,591.44l-66.14,66.01c-9.84-12.91-20.79-24.95-32.64-36.04l65.73-65.6c11.74,11.16,22.79,23.08,33.05,35.64Z"/>
    <path class="cls-5" d="m279.23,1106.21l-70.26,70.11c-19.28-9.91-37.6-21.37-54.81-34.26l66.61-66.48c18.14,12.3,37.71,22.62,58.46,30.63Z"/>
    <path class="cls-5" d="m726.58,659.74l-70.24,70.11c-7.96-20.75-18.23-40.35-30.5-58.5l66.61-66.48c12.87,17.22,24.28,35.57,34.13,54.87Z"/>
    <path class="cls-5" d="m422.75,1123.18l-91.85,91.67c-14.36-1.99-28.45-4.77-42.25-8.31l81.36-81.18c4.71.24,9.43.35,14.21.35,13.06,0,25.92-.87,38.53-2.53Z"/>
    <path class="cls-5" d="m764.85,781.74v.02l-91.85,91.65c1.72-12.78,2.62-25.84,2.62-39.11,0-4.55-.11-9.09-.33-13.6l81.36-81.21c3.49,13.79,6.25,27.89,8.2,42.24Z"/>
    <path class="cls-6" d="m389.92,684.21h55.01v338.38h-69.77v-251.7l-43.34,42.39-34.53-52.63,92.64-76.44Z"/>
    <polygon class="cls-5" points="382.74 673.73 292.39 763.91 283.35 750.17 375.97 673.73 382.74 673.73"/>
    <polygon class="cls-5" points="373.51 1012.13 373.5 1012.14 361.23 1012.14 361.23 1012.13 373.51 1012.13"/>
    <path class="cls-4" d="m726.12,660.21l-63.76,63.64c-9.37-19.59-20.86-37.96-34.18-54.83-3.51-4.45-7.14-8.78-10.9-13.01-6.13-6.9-12.58-13.5-19.33-19.78-.59-.66-1.2-1.31-1.82-1.95-.69-.74-1.39-1.47-2.1-2.2-.7-.73-1.4-1.46-2.12-2.18-2.84-2.89-5.75-5.73-8.72-8.49l60.77-60.65c12.27,10.59,23.86,21.95,34.68,34.01,3.79,4.2,7.48,8.48,11.07,12.85,13.53,16.44,25.72,34.03,36.41,52.59Z"/>
    <polygon class="cls-4" points="430.98 673.75 430.98 1012.13 361.21 1012.13 361.21 760.43 317.87 802.82 283.34 750.19 375.97 673.75 430.98 673.75"/>
    <path class="cls-4" d="m273.24,1112.2l-64.27,64.12c-.61-.31-1.21-.62-1.81-.93-.6-.31-1.2-.62-1.8-.94-.06-.03-.12-.06-.18-.1-1.37-.73-2.73-1.46-4.1-2.2-4.08-2.21-8.12-4.5-12.11-6.86-1.33-.79-2.66-1.59-3.98-2.39-.9-.55-1.8-1.1-2.7-1.66-4.36-2.69-8.65-5.47-12.89-8.33-1.27-.87-2.55-1.74-3.81-2.61-1.27-.88-2.53-1.77-3.79-2.66-1.25-.89-2.5-1.79-3.74-2.7-1.31-.95-2.6-1.91-3.89-2.88-4.55-3.4-9.02-6.9-13.41-10.51-.31-.25-.62-.5-.93-.76-2.21-1.82-4.39-3.66-6.55-5.53-.24-.19-.48-.4-.72-.62-.83-.72-1.66-1.45-2.49-2.18-.56-.48-1.11-.97-1.66-1.48-.73-.65-1.47-1.31-2.2-1.98-1.27-1.14-2.52-2.29-3.77-3.46-1.49-1.38-2.96-2.77-4.41-4.18-1.36-1.3-2.71-2.62-4.05-3.95-.16-.15-.32-.31-.48-.47-1.25-1.24-2.49-2.49-3.72-3.75-.33-.33-.65-.67-.97-1.01-1.21-1.24-2.41-2.49-3.6-3.75l65.7-65.58c1.58,1.69,3.17,3.37,4.8,5.02.81.84,1.63,1.67,2.46,2.49.82.83,1.65,1.65,2.49,2.46.74.72,1.48,1.44,2.23,2.15.99.95,1.98,1.89,2.98,2.8.02.03.04.05.06.06l.06.06c6.19,6.66,12.7,13.03,19.5,19.08,4.21,3.77,8.54,7.41,12.97,10.92.71.57,1.42,1.12,2.13,1.68,16.26,12.65,33.9,23.61,52.65,32.63Z"/>
  </g>
</svg>