<?xml version="1.0" encoding="UTF-8"?>
<svg id="Layer_1" data-name="Layer 1" xmlns="http://www.w3.org/2000/svg" viewBox="0 0 777.08 1235.79">
  <defs>
    <style>
      .cls-1 {
        fill: #cdecf9;
      }

      .cls-2 {
        fill: #939598;
      }

      .cls-3 {
        opacity: .7;
      }

      .cls-3, .cls-4 {
        fill: #f2f2f2;
      }

      .cls-5 {
        fill: #c1cfd1;
      }

      .cls-6 {
        fill: #bdbec0;
      }

      .cls-7 {
        fill: #fff;
        opacity: .85;
      }

      .cls-8 {
        fill: #0b4978;
      }
    </style>
  </defs>
  <path class="cls-2" d="m697.77,354.6H88.65c-15.8,0-30.12,6.41-40.47,16.77-10.36,10.35-16.77,24.67-16.77,40.47,0,31.61,25.63,57.24,57.24,57.24h55.97c6.56,46.46,46.5,82.21,94.77,82.21h302.14c26.43,0,50.36-10.71,67.68-28.04,14.31-14.31,24.12-33.14,27.09-54.17h61.47c15.8,0,30.12-6.41,40.47-16.77,10.36-10.35,16.77-24.67,16.77-40.47,0-31.61-25.63-57.24-57.24-57.24Zm15.34,74.8c-4.49,4.5-10.7,7.28-17.56,7.28H90.87c-13.71,0-24.84-11.12-24.84-24.84,0-6.86,2.78-13.07,7.28-17.56,4.5-4.5,10.7-7.28,17.56-7.28h604.68c13.72,0,24.84,11.12,24.84,24.84,0,6.86-2.78,13.07-7.28,17.56Z"/>
  <g>
    <rect class="cls-8" x="99.79" width="586.85" height="411.84" rx="40" ry="40"/>
    <rect class="cls-1" x="237.4" width="311.64" height="411.84"/>
  </g>
  <g>
    <g>
      <path class="cls-2" d="m777.08,851.57c0,212.2-172.02,384.22-384.22,384.22S8.64,1063.77,8.64,851.57s172.02-384.22,384.23-384.22,384.22,172.02,384.22,384.22Z"/>
      <path class="cls-5" d="m768.44,834.3c0,212.2-172.02,384.22-384.22,384.22S0,1046.5,0,834.3s172.03-384.22,384.23-384.22,384.22,172.02,384.22,384.22Z"/>
      <circle class="cls-6" cx="384.23" cy="834.3" r="291.4"/>
      <path class="cls-3" d="m690.73,849.41c0,160.94-130.47,291.4-291.4,291.4-84.31,0-160.25-35.81-213.46-93.06,52.02,48.37,121.72,77.95,198.35,77.95,160.94,0,291.4-130.46,291.4-291.4,0-76.63-29.57-146.35-77.95-198.35,57.25,53.19,93.06,129.14,93.06,213.46Z"/>
      <path class="cls-2" d="m118.72,851.57c0-160.94,130.47-291.4,291.4-291.4,54.21,0,104.94,14.82,148.41,40.6-48.62-36.35-108.96-57.87-174.32-57.87-160.94,0-291.4,130.47-291.4,291.4,0,106.73,57.39,200.05,142.99,250.81-71.08-53.14-117.09-137.97-117.09-233.54Z"/>
      <path class="cls-3" d="m113.53,942.4l-69.96,69.8c-16.47-31.47-28.71-65.49-35.94-101.34l85.3-85.13c-.08,2.85-.12,5.7-.12,8.57,0,38.21,7.34,74.68,20.72,108.1Z"/>
      <path class="cls-3" d="m562.82,494.01l-69.96,69.83c-33.56-13.51-70.24-20.94-108.64-20.94-2.68,0-5.33.04-7.99.11l85.31-85.13c35.83,7.3,69.85,19.6,101.28,36.14Z"/>
      <path class="cls-3" d="m206.91,1065.55l-66.16,66.01c-12.56-10.3-24.43-21.37-35.55-33.14l65.71-65.58c11.07,11.87,23.12,22.84,36,32.7Z"/>
      <path class="cls-3" d="m681.96,591.44l-66.14,66.01c-9.84-12.91-20.79-24.95-32.64-36.04l65.73-65.6c11.74,11.16,22.79,23.08,33.05,35.64Z"/>
      <path class="cls-3" d="m279.23,1106.21l-70.26,70.11c-19.28-9.91-37.6-21.37-54.81-34.26l66.61-66.48c18.14,12.3,37.71,22.62,58.46,30.63Z"/>
      <path class="cls-3" d="m422.75,1123.18l-91.85,91.67c-14.36-1.99-28.45-4.77-42.25-8.31l81.36-81.18c4.71.24,9.43.35,14.21.35,13.06,0,25.92-.87,38.53-2.53Z"/>
      <path class="cls-2" d="m530.64,957.14l-5.48,64.77h-243.84v-63.1c7.94-6.03,21.04-15.48,39.29-28.34,44.61-31.75,77.07-57.9,97.39-78.46,20.32-20.56,30.48-39.41,30.48-56.55,0-12.54-4.05-22.9-12.14-31.08-8.1-8.18-18.98-12.26-32.62-12.26-31.75,0-50.17,20.72-55.24,62.15l-67.16-15c15.08-71.59,56.91-107.4,125.49-107.4,38.42,0,67.9,10.08,88.46,30.24,20.56,20.16,30.84,44.21,30.84,72.15s-10.75,54.69-32.26,77.39c-21.52,22.7-61.08,51.2-118.71,85.49h155.5Z"/>
      <g>
        <path class="cls-4" d="m263.88,785.31h.01c.23-1.05.45-2.09.68-3.13-.24,1.03-.47,2.08-.69,3.13Zm.69-3.13c.88-3.9,1.84-7.69,2.88-11.38-1.05,3.68-2.01,7.48-2.88,11.38Zm3.95-15.03c.66-2.17,1.35-4.29,2.06-6.38-.72,2.09-1.41,4.21-2.06,6.38Zm5.89-16.49c1.09-2.61,2.23-5.15,3.42-7.62-1.2,2.47-2.34,5.01-3.42,7.62Zm3.42-7.63c.9-1.84,1.82-3.65,2.77-5.42-.96,1.77-1.88,3.58-2.77,5.42Zm222.7-2.7c-.65-1.49-1.34-2.96-2.09-4.42.74,1.46,1.43,2.93,2.09,4.42Zm-6.98-12.98c-.89-1.4-1.83-2.78-2.81-4.15.97,1.37,1.91,2.75,2.81,4.15Zm-3.89-5.62c.37.48.73.98,1.08,1.47-.35-.49-.71-.98-1.07-1.47h-.01Zm-17.5,140.29c1.49-1.46,2.91-2.9,4.25-4.32,1.22-1.28,2.4-2.58,3.54-3.88-1.15,1.3-2.33,2.59-3.55,3.87-1.34,1.42-2.75,2.86-4.24,4.33Zm-1.42,1.38c-1.43,1.38-2.92,2.79-4.48,4.22,1.56-1.43,3.05-2.83,4.48-4.22Zm-4.49,4.22c-1.24,1.14-2.53,2.29-3.85,3.46,1.33-1.16,2.61-2.31,3.85-3.46Zm-102.26,3.04c-1.98,1.61-4.01,3.24-6.08,4.9,2.07-1.65,4.1-3.28,6.08-4.9Zm-6.09,4.91c-2.07,1.65-4.19,3.33-6.36,5.03,2.17-1.69,4.29-3.37,6.36-5.03Zm-6.37,5.03c-3.25,2.54-6.61,5.14-10.08,7.8,3.47-2.64,6.83-5.24,10.08-7.8Zm-10.09,7.8c-2.31,1.76-4.67,3.54-7.07,5.36,2.4-1.8,4.76-3.59,7.07-5.36Zm-10.73,8.09c-2.45,1.83-4.95,3.68-7.5,5.56,2.55-1.87,5.05-3.72,7.5-5.56Z"/>
        <path class="cls-4" d="m513.2,943.19l-3.63,42.9-1.85,21.86h0s-243.84.01-243.84.01v-63.1c.25-.19.5-.38.76-.57h.01c.51-.39,1.05-.79,1.6-1.21,2.23-1.67,4.77-3.55,7.64-5.64,1.8-1.31,3.72-2.71,5.77-4.19.82-.59,1.65-1.19,2.51-1.8,0-.01.01-.01.01-.01.86-.62,1.73-1.24,2.63-1.89.9-.64,1.82-1.3,2.76-1.97,1.41-1.01,2.87-2.04,4.37-3.11,1-.71,2.02-1.43,3.06-2.17,2.61-1.84,5.34-3.77,8.19-5.78,6.97-4.96,13.64-9.78,20.02-14.47,2.55-1.87,5.05-3.72,7.5-5.56,1.23-.91,2.45-1.82,3.66-2.73,2.4-1.8,4.76-3.59,7.07-5.36h.01c3.47-2.64,6.83-5.24,10.08-7.8h.01c2.17-1.69,4.29-3.37,6.36-5.03.01,0,.01-.01.01-.01,2.07-1.65,4.1-3.28,6.08-4.9h0c.74-.61,1.48-1.21,2.21-1.81,1.45-1.19,2.88-2.37,4.28-3.54.7-.59,1.4-1.18,2.09-1.76h.01c2.76-2.32,5.41-4.59,7.95-6.81.85-.74,1.69-1.48,2.51-2.21.82-.73,1.64-1.46,2.44-2.17,2.4-2.16,4.69-4.27,6.88-6.33h.01c2.92-2.74,5.65-5.4,8.19-7.97,20.31-20.56,30.48-39.41,30.48-56.56,0-1-.03-1.99-.09-2.96-.02-.65-.07-1.29-.14-1.92-.07-.96-.18-1.9-.32-2.83-1.36-9.14-5.22-16.92-11.59-23.36-8.1-8.18-18.98-12.26-32.63-12.26-31.75,0-50.17,20.71-55.24,62.15l-61.38-13.72-5.77-1.29c.23-1.05.45-2.09.68-3.13.88-3.9,1.84-7.69,2.88-11.38.35-1.23.7-2.45,1.07-3.65.66-2.17,1.35-4.29,2.06-6.38.24-.69.49-1.38.73-2.07.33-.92.66-1.83,1-2.73.68-1.8,1.38-3.57,2.1-5.31,1.09-2.61,2.23-5.15,3.42-7.62h0c.9-1.85,1.82-3.66,2.77-5.43.32-.59.64-1.18.96-1.76h0c.33-.59.65-1.17.98-1.74.67-1.14,1.34-2.27,2.03-3.38.34-.56.69-1.1,1.04-1.65.41-.64.82-1.27,1.23-1.89.09-.13.17-.25.26-.38.27-.4.54-.8.82-1.2.26-.4.54-.8.82-1.19.18-.25.36-.5.54-.74.35-.49.7-.98,1.07-1.46.38-.51.76-1.02,1.15-1.52.43-.56.86-1.11,1.3-1.66.18-.23.36-.45.54-.67.35-.43.71-.86,1.07-1.29.15-.18.3-.36.45-.53.43-.52.87-1.03,1.32-1.53.08-.09.16-.18.25-.27.4-.46.81-.92,1.23-1.37.26-.28.52-.57.78-.84.32-.35.65-.69.98-1.03.21-.22.42-.44.64-.65.37-.39.76-.77,1.14-1.15.54-.54,1.09-1.06,1.64-1.58.45-.43.9-.85,1.36-1.26,2.85-2.6,5.84-5.02,8.95-7.27.52-.38,1.05-.75,1.58-1.12.69-.48,1.38-.95,2.09-1.41.09-.06.18-.12.27-.18.62-.41,1.24-.8,1.87-1.19.61-.38,1.24-.76,1.86-1.12.64-.39,1.29-.77,1.94-1.13.51-.29,1.03-.58,1.55-.86.39-.22.79-.43,1.2-.64.67-.35,1.34-.69,2.02-1.03.42-.21.84-.42,1.27-.62.32-.16.64-.31.96-.46.5-.24,1.01-.47,1.52-.7.24-.11.48-.21.72-.32.53-.24,1.06-.47,1.59-.69.27-.11.53-.22.8-.33.48-.21.96-.4,1.44-.59.39-.16.78-.31,1.18-.46.41-.16.83-.32,1.24-.47.78-.29,1.56-.57,2.35-.85.34-.12.68-.24,1.02-.35.59-.2,1.18-.39,1.78-.58.81-.26,1.64-.52,2.46-.76.85-.25,1.7-.49,2.56-.73,1.66-.45,3.35-.88,5.06-1.27.86-.2,1.73-.39,2.61-.58,1.64-.34,3.3-.65,4.98-.94.27-.05.55-.09.82-.13,1.58-.27,3.18-.51,4.79-.72.09,0,.19-.03.28-.04,7.13-.93,14.6-1.41,22.42-1.41,38.42,0,67.9,10.08,88.46,30.24,3.18,3.12,6.09,6.34,8.78,9.65.09.11.17.21.25.32.58.7,1.14,1.42,1.69,2.14.2.26.41.53.61.8.16.22.33.44.49.66.37.48.73.98,1.08,1.47.97,1.37,1.91,2.75,2.81,4.15.3.46.59.93.88,1.4.87,1.41,1.7,2.83,2.49,4.27.52.96,1.03,1.92,1.52,2.89.74,1.46,1.43,2.93,2.09,4.42.22.5.43.99.64,1.49.22.5.42,1,.62,1.51.2.5.4,1,.59,1.51.2.51.39,1.01.57,1.52.18.51.36,1.02.54,1.54.11.32.21.64.32.96.4,1.22.78,2.45,1.13,3.69.15.53.29,1.05.43,1.58.13.48.25.96.37,1.44.19.74.36,1.49.53,2.25.14.58.26,1.16.37,1.74.07.32.13.64.19.96.21,1.07.4,2.16.57,3.25.09.54.17,1.09.25,1.64.69,4.84,1.03,9.8,1.03,14.9,0,2.78-.1,5.54-.3,8.27-.19,2.57-.47,5.12-.83,7.64,0,.03,0,.05-.01.07-.13.85-.26,1.69-.4,2.54-.41,2.37-.89,4.72-1.45,7.04-.43,1.74-.89,3.46-1.4,5.18-.69,2.28-1.45,4.55-2.29,6.79-.21.56-.43,1.12-.65,1.68-.66,1.67-1.36,3.33-2.11,4.97-.25.55-.51,1.1-.77,1.64-.28.6-.58,1.19-.87,1.78-.89,1.78-1.83,3.54-2.82,5.29-.31.55-.64,1.11-.96,1.66-.33.55-.66,1.11-1,1.65-.34.56-.68,1.1-1.03,1.65-.66,1.06-1.36,2.11-2.08,3.15-.24.35-.48.7-.73,1.05-.65.95-1.33,1.89-2.04,2.83-.28.38-.55.75-.84,1.12-.71.95-1.45,1.89-2.21,2.83-.38.47-.76.94-1.15,1.41-.91,1.1-1.84,2.19-2.79,3.27-1.15,1.3-2.33,2.59-3.55,3.87-1.34,1.42-2.75,2.86-4.24,4.33-.46.45-.94.91-1.42,1.38-1.43,1.38-2.92,2.79-4.48,4.22h-.01c-1.24,1.14-2.53,2.29-3.85,3.46h-.01c-.88.78-1.78,1.56-2.69,2.35-1.38,1.18-2.8,2.38-4.27,3.59-.48.4-.97.81-1.47,1.21-5.65,4.65-11.88,9.47-18.7,14.48-.93.69-1.87,1.38-2.83,2.07-3.04,2.21-6.2,4.46-9.47,6.74-1.96,1.37-3.96,2.75-5.99,4.14-3.18,2.19-6.47,4.4-9.86,6.64-3.39,2.24-6.86,4.51-10.44,6.82-10.72,6.92-22.31,14.11-34.78,21.57-1.39.83-2.78,1.66-4.19,2.5h155.5Z"/>
        <path class="cls-4" d="m490.74,723.2c-.35-.49-.71-.99-1.08-1.47-.16-.22-.33-.44-.49-.66.16.22.33.44.5.66.36.49.72.98,1.07,1.47Z"/>
      </g>
      <path class="cls-3" d="m269.66,786.6l-.02.02-5.75-1.29v-.02l5.77,1.29Z"/>
      <path class="cls-3" d="m430.82,776.62c-.09-.95-.2-1.89-.35-2.8l.03-.03c.14.93.25,1.87.32,2.83Z"/>
      <path class="cls-3" d="m430.96,778.54c.06.97.09,1.96.09,2.96,0,17.15-10.17,36-30.48,56.56-2.54,2.57-5.27,5.23-8.19,7.97,2.92-2.75,5.64-5.41,8.17-7.98,20.33-20.54,30.48-39.4,30.48-56.56,0-.99-.02-1.98-.07-2.95Z"/>
      <path class="cls-3" d="m490.74,723.2c-.35-.49-.71-.99-1.08-1.47h.01c.36.49.72.98,1.07,1.47Z"/>
      <path class="cls-3" d="m357.7,943.19c1.41-.84,2.8-1.67,4.19-2.5-1.38.83-2.77,1.66-4.17,2.5h-.02Z"/>
      <path class="cls-3" d="m396.67,919.12c3.58-2.31,7.05-4.58,10.44-6.82-3.38,2.25-6.86,4.53-10.44,6.82Z"/>
      <path class="cls-3" d="m416.97,905.66c2.03-1.39,4.03-2.77,5.99-4.14-1.96,1.37-3.95,2.75-5.99,4.14Z"/>
      <path class="cls-3" d="m494.78,833.2c.99-1.75,1.93-3.51,2.82-5.29-.87,1.78-1.82,3.54-2.82,5.29Z"/>
      <path class="cls-3" d="m499.24,824.49c.75-1.64,1.45-3.3,2.11-4.97-.65,1.67-1.35,3.33-2.11,4.97Z"/>
      <path class="cls-3" d="m502,817.84c.84-2.24,1.6-4.51,2.29-6.79-.67,2.29-1.44,4.55-2.29,6.79Z"/>
      <path class="cls-3" d="m504.29,811.05c.51-1.72.97-3.44,1.4-5.18-.41,1.74-.88,3.47-1.4,5.18Z"/>
      <path class="cls-3" d="m505.69,805.87c.56-2.32,1.04-4.67,1.45-7.04-.39,2.37-.88,4.72-1.45,7.04Z"/>
      <path class="cls-3" d="m508.39,788.57c-.19,2.58-.46,5.13-.84,7.65.36-2.52.64-5.07.83-7.64h.01Z"/>
      <path class="cls-4" d="m726.11,660.21l-63.75,63.64c-9.37-19.59-20.86-37.96-34.18-54.83-3.51-4.45-7.15-8.78-10.91-13.01-6.12-6.9-12.57-13.5-19.32-19.78-.58-.64-1.17-1.27-1.78-1.9-.02-.02-.04-.05-.07-.08-4.16-4.42-8.47-8.7-12.91-12.84l60.78-60.65c12.26,10.59,23.84,21.95,34.68,34,3.78,4.2,7.46,8.48,11.06,12.85,13.53,16.44,25.72,34.03,36.4,52.6Z"/>
      <path class="cls-7" d="m273.24,1112.2l-64.27,64.12c-1.21-.62-2.41-1.25-3.61-1.87-.06-.03-.12-.06-.18-.1-1.37-.73-2.73-1.46-4.1-2.2-1.36-.74-2.71-1.48-4.06-2.24-1.36-.75-2.7-1.52-4.04-2.29-1.18-.67-2.35-1.36-3.52-2.05-.32-.17-.63-.36-.93-.54-1.18-.71-2.36-1.41-3.54-2.13-.9-.55-1.8-1.1-2.69-1.66-4.36-2.69-8.66-5.47-12.9-8.33-1.27-.87-2.55-1.74-3.81-2.61-1.27-.88-2.53-1.77-3.79-2.66-1.25-.89-2.5-1.79-3.74-2.7-1.31-.95-2.6-1.91-3.89-2.88-4.55-3.4-9.02-6.9-13.41-10.51-.31-.25-.62-.5-.93-.76-2.21-1.82-4.39-3.66-6.55-5.53-.24-.19-.48-.4-.72-.62-.83-.72-1.66-1.45-2.49-2.18-.56-.48-1.11-.97-1.66-1.48-.76-.67-1.52-1.36-2.28-2.04-2.99-2.72-5.94-5.48-8.84-8.29-1.09-1.05-2.18-2.11-3.25-3.18-.18-.17-.36-.35-.54-.53-2.81-2.79-5.58-5.63-8.3-8.51l65.71-65.58c.31.33.62.66.94.99.84.9,1.69,1.79,2.56,2.68.42.45.86.9,1.3,1.35.38.39.77.78,1.16,1.17.34.36.69.71,1.04,1.06.97.97,1.95,1.94,2.94,2.9.68.66,1.36,1.32,2.04,1.97.98.95,1.98,1.88,2.98,2.8.02.03.04.05.06.06.02.02.04.04.06.06,6.19,6.66,12.7,13.03,19.49,19.08,4.22,3.77,8.55,7.41,12.98,10.92.71.57,1.42,1.13,2.13,1.69,16.26,12.64,33.9,23.6,52.65,32.62Z"/>
    </g>
    <path class="cls-3" d="m764.86,781.74v.02l-91.85,91.65c1.72-12.78,2.62-25.84,2.62-39.11,0-4.55-.11-9.09-.33-13.6l81.36-81.21c3.49,13.79,6.25,27.89,8.2,42.24Z"/>
  </g>
</svg>